<svg height="402pt" viewBox="-1 0 402 402.77333" width="402pt" xmlns="http://www.w3.org/2000/svg"><path d="m252.972656 126.292969c0 69.75-56.542968 126.292969-126.292968 126.292969s-126.292969-56.542969-126.292969-126.292969 56.542969-126.292969 126.292969-126.292969 126.292968 56.542969 126.292968 126.292969zm0 0" fill="#e7d1c4"/><path d="m72.066406 344.746094h-27.304687c-11.3125 0-23.894531 12.582031-23.894531 23.894531h88.746093c8.117188 0 58.027344 17.066406 58.027344 17.066406s-6.828125 3.414063-6.828125 10.238281h92.160156l3.414063-6.824218h78.507812c31.914063 0 58.027344-26.113282 58.027344-58.027344 0-30.164062-24.453125-54.613281-54.613281-54.613281h-13.65625l13.351562 7.382812c10.71875 5.929688 17.371094 17.203125 17.371094 29.449219v1.328125c0 14.859375-11.867188 26.71875-26.5 26.707031-.273438 0-.546875 0-.820312 0-15.078126-.015625-27.292969-12.242187-27.292969-27.320312v-98.371094c0-66.320312-53.765625-120.082031-120.085938-120.082031h-13.035156v64.851562h13.652344c11.308593 0 20.480469 9.171875 20.480469 20.480469s-9.171876 20.480469-20.480469 20.480469h-27.304688c-45.246093 0-81.921875 36.675781-81.921875 81.921875-13.195312 0-23.894531 10.695312-23.894531 23.890625v13.652343c0 13.199219 10.699219 23.894532 23.894531 23.894532" fill="#c1dbdc"/><path d="m252.972656 402.773438h-92.160156c-3.769531 0-6.824219-3.054688-6.824219-6.828126 0-2.660156.617188-5.03125 1.589844-7.097656-20.972656-6.96875-41.953125-13.300781-45.976563-13.382812h-88.734374c-3.769532 0-6.828126-3.050782-6.828126-6.824219 0-15.214844 15.503907-30.71875 30.722657-30.71875h1.773437c-3.273437-4.886719-5.1875-10.761719-5.1875-17.070313v-13.652343c0-14.667969 10.332032-26.964844 24.097656-30 3.148438-46.097657 41.65625-82.640625 88.542969-82.640625h27.304688c7.527343 0 13.652343-6.125 13.652343-13.652344s-6.125-13.652344-13.652343-13.652344h-13.652344c-3.769531 0-6.828125-3.054687-6.828125-6.828125v-64.851562c0-3.773438 3.058594-6.828125 6.828125-6.828125h13.035156c69.976563 0 126.910157 56.933594 126.910157 126.90625v98.375c0 11.292968 9.1875 20.484375 20.472656 20.492187h.816406.019531c5.253907 0 10.179688-2.046875 13.878907-5.765625 3.722656-3.738281 5.773437-8.753906 5.773437-14.113281v-1.328125c0-9.753906-5.304687-18.746094-13.84375-23.472656l-13.355469-7.386719c-2.71875-1.507813-4.078125-4.664063-3.300781-7.679687.773437-3.015626 3.496094-5.121094 6.609375-5.121094h13.652344c33.878906 0 61.441406 27.558594 61.441406 61.441406 0 35.757812-29.09375 64.851562-64.855469 64.851562h-74.285156l-1.527344 3.054688c-1.164062 2.3125-3.519531 3.773438-6.109375 3.773438zm-79.417968-13.652344h75.199218l1.527344-3.054688c1.160156-2.3125 3.519531-3.773437 6.105469-3.773437h78.507812c28.230469 0 51.199219-22.964844 51.199219-51.199219 0-22.121094-15.113281-40.78125-35.554688-46.199219 7.367188 7.464844 11.660157 17.640625 11.660157 28.417969v1.328125c0 8.992187-3.457031 17.425781-9.746094 23.746094-6.28125 6.3125-14.648437 9.785156-23.554687 9.785156-.011719 0-.019532 0-.03125 0h-.816407c-18.808593-.011719-34.117187-15.332031-34.117187-34.144531v-98.375c0-62.445313-50.808594-113.253906-113.257813-113.253906h-6.210937v51.203124h6.828125c15.058593 0 27.308593 12.246094 27.308593 27.304688s-12.25 27.308594-27.308593 27.308594h-27.304688c-41.410156 0-75.09375 33.683594-75.09375 75.09375 0 3.773437-3.058593 6.824218-6.828125 6.824218-9.410156 0-17.066406 7.652344-17.066406 17.066407v13.652343c0 9.414063 7.65625 17.070313 17.066406 17.070313 3.769532 0 6.828125 3.050781 6.828125 6.824219 0 3.773437-3.058593 6.828125-6.828125 6.828125h-27.304687c-5.300781 0-11.640625 4.785156-14.898438 10.238281h79.75c8.582031 0 48.277344 13.347656 60.238281 17.433594 2.601563.894531 4.414063 3.261718 4.597657 6 .09375 1.386718-.230469 2.726562-.894531 3.875zm0 0" fill="#4c241d"/><path d="m196.410156 305.023438c-.378906-4.230469-2.226562-31.246094 10.140625-49.796876l-57.148437 16.808594s6.722656-26.894531 20.171875-26.894531l30.253906-10.085937 10.976563-4.386719c-14.367188-15.824219-35.476563-25.867188-59.078126-25.867188-43.277343 0-78.359374 33.617188-78.359374 75.09375 0 41.472657 35.082031 75.09375 78.359374 75.09375 12.894532 0 25.03125-3.042969 35.761719-8.332031-1.683593-4.351562-2.621093-9.113281-2.621093-14.113281 0-10.945313 4.472656-20.75 11.542968-27.519531zm0 0" fill="#ffce56"/><path d="m151.726562 361.8125c-46.972656 0-85.1875-36.746094-85.1875-81.917969 0-45.175781 38.214844-81.921875 85.1875-81.921875 24.539063 0 47.914063 10.246094 64.132813 28.109375 1.507813 1.652344 2.101563 3.9375 1.601563 6.117188-.507813 2.179687-2.039063 3.972656-4.121094 4.808593l-10.980469 4.386719-30.625 10.21875c-.695313.234375-1.425781.351563-2.160156.351563-3.03125 0-6.359375 4.320312-9.046875 9.679687l44.097656-12.964843c2.769531-.816407 5.722656.179687 7.429688 2.5 1.699218 2.3125 1.773437 5.445312.179687 7.832031-11.1875 16.78125-9.28125 42.527343-9.027344 45.40625.179688 2.058593-.582031 4.09375-2.074219 5.527343-6 5.753907-9.4375 13.984376-9.4375 22.59375 0 4.015626.726563 7.9375 2.160157 11.652344 1.273437 3.292969-.179688 7.019532-3.347657 8.578125-12.160156 6.003907-25.203124 9.042969-38.78125 9.042969zm0-150.1875c-39.441406 0-71.53125 30.628906-71.53125 68.269531s32.089844 68.265625 71.53125 68.265625c9.527344 0 18.746094-1.773437 27.480469-5.28125-.777343-3.375-1.167969-6.832031-1.167969-10.339844 0-11.179687 4.105469-21.964843 11.355469-30.082031-.347656-7.003906-.339843-21.9375 4.472657-36.382812l-42.539063 12.503906c-2.34375.695313-4.886719.066406-6.652344-1.617187-1.765625-1.695313-2.488281-4.207032-1.894531-6.582032 1.308594-5.230468 8.570312-30.824218 25.558594-32.027344l30.089844-10.078124c-12.921876-10.671876-29.46875-16.648438-46.703126-16.648438zm0 0" fill="#4c241d"/><path d="m164.21875 402.773438c-1.050781 0-2.121094-.246094-3.125-.757813-3.351562-1.734375-4.664062-5.855469-2.933594-9.203125 7.59375-14.699219 20.839844-24.730469 35.800782-27.578125-8.808594-7.78125-14.207032-19.40625-14.207032-32.847656 0-25.179688 18.820313-45.667969 41.945313-45.667969h41.515625c3.773437 0 6.824218 3.054688 6.824218 6.828125s-3.050781 6.828125-6.824218 6.828125h-41.515625c-15.597657 0-28.292969 14.359375-28.292969 32.011719 0 17.054687 11.902344 29.425781 28.292969 29.425781h25.546875c3.695312 0 6.714844 2.941406 6.828125 6.628906.105469 3.691406-2.746094 6.796875-6.433594 7.011719l-44.507813 2.585937c-13.707031.015626-26.140624 8.074219-32.839843 21.042969-1.210938 2.34375-3.601563 3.691407-6.074219 3.691407zm0 0" fill="#4c241d"/><path d="m197.46875 305.992188c-3.429688 0-6.378906-2.566407-6.773438-6.050782-.089843-.808594-1.640624-15.808594 4.71875-32.949218l-42.914062 12.621093c-2.339844.691407-4.882812.074219-6.652344-1.621093-1.765625-1.691407-2.488281-4.207032-1.894531-6.578126 1.320313-5.296874 8.683594-31.238281 25.863281-32.441406l30.183594-10.089844c25.742188-10.300781 41.292969-36.6875 36.953125-62.730468-.226563-1.363282-.503906-2.726563-.839844-4.070313-.917969-3.65625 1.308594-7.359375 4.96875-8.277343 3.640625-.917969 7.359375 1.300781 8.273438 4.96875.425781 1.691406.773437 3.398437 1.066406 5.132812 5.386719 32.328125-13.691406 64.988281-45.375 77.660156l-.757813.300782-31.074218 10.367187c-.699219.234375-1.425782.351563-2.160156.351563-3.132813 0-6.582032 4.527343-9.355469 10.09375l44.976562-13.226563c2.773438-.808594 5.71875.1875 7.425781 2.5 1.699219 2.3125 1.773438 5.445313.179688 7.832031-12.019531 18.035156-10.035156 38.453125-10.011719 38.660156.390625 3.742188-2.3125 7.109376-6.054687 7.507813-.246094.027344-.5.039063-.746094.039063zm0 0" fill="#4c241d"/><path d="m158.859375 112.785156c5.953125 0 10.574219-5.1875 9.886719-11.097656l-1.105469-9.527344 20.480469-40.960937-6.828125-27.304688-6.828125 27.304688-20.46875 30.707031c-4.398438 6.597656-6.171875 14.597656-4.972656 22.433594.746093 4.859375 4.921874 8.445312 9.835937 8.445312zm0 0" fill="#fc8c29"/><path d="m158.859375 119.613281c-8.347656 0-15.324219-5.988281-16.582031-14.242187-1.464844-9.539063.675781-19.21875 6.035156-27.25l19.816406-29.722656 6.539063-26.160157c.761719-3.039062 3.492187-5.171875 6.625-5.171875 3.132812 0 5.859375 2.132813 6.621093 5.171875l6.824219 27.308594c.402344 1.578125.214844 3.246094-.511719 4.707031l-19.570312 39.140625.871094 7.503907c.550781 4.753906-.953125 9.519531-4.132813 13.09375-3.183593 3.574218-7.75 5.621093-12.535156 5.621093zm15.078125-55.3125-14.265625 21.394531c-3.457031 5.191407-4.84375 11.445313-3.902344 17.609376.238281 1.539062 1.535157 2.65625 3.089844 2.65625 1.222656 0 1.988281-.65625 2.339844-1.046876.34375-.394531.90625-1.226562.769531-2.441406l-1.109375-9.527344c-.152344-1.316406.082031-2.652343.675781-3.839843zm0 0" fill="#4c241d"/><path d="m296.535156 176.15625s21.292969-8.902344 21.292969-36.210938l68.265625 75.09375s-27.308594-27.304687-34.132812 0c0 0-20.480469-27.304687-34.132813 0 0 0 1.136719-25.335937-16.5-22.90625zm0 0" fill="#fc8c29"/><path d="m317.828125 221.867188c-.566406 0-1.148437-.074219-1.722656-.21875-3.117188-.816407-5.246094-3.695313-5.097657-6.914063.140626-3.5-.660156-11.742187-3.996093-14.769531-.773438-.699219-2.039063-1.445313-4.75-1.070313-3.273438.503907-6.503907-1.566406-7.476563-4.800781l-4.792968-15.980469c-1-3.332031.667968-6.878906 3.867187-8.238281.78125-.339844 17.140625-7.808594 17.140625-29.929688 0-2.816406 1.734375-5.351562 4.367188-6.363281 2.621093-1.035156 5.613281-.316406 7.511718 1.773438l68.269532 75.09375c2.484374 2.738281 2.339843 6.964843-.339844 9.519531-2.679688 2.570312-6.910156 2.519531-9.535156-.09375-5-4.96875-14.210938-11.183594-18.554688-10.007812-2.273438.632812-3.566406 4.554687-4.136719 6.828124-.636719 2.558594-2.6875 4.519532-5.269531 5.039063-2.597656.484375-5.238281-.492187-6.8125-2.601563-2.464844-3.246093-9.054688-9.773437-14.265625-9.378906-3.582031.332032-6.492187 4.722656-8.300781 8.339844-1.179688 2.351562-3.566406 3.773438-6.105469 3.773438zm14.917969-25.792969c6.726562 0 12.726562 3.492187 17.140625 7.105469 2.886719-3.886719 6.320312-5.671876 9.195312-6.472657.304688-.082031.609375-.160156.910157-.226562l-37.507813-41.261719c-3.917969 12.882812-12.277344 20.386719-17.859375 24.152344l1.789062 5.953125c4.519532.621093 7.722657 2.660156 9.8125 4.5625 2.832032 2.59375 4.726563 5.925781 5.984376 9.332031 2.703124-1.753906 5.640624-2.78125 8.808593-3.066406.578125-.054688 1.160157-.078125 1.726563-.078125zm0 0" fill="#4c241d"/><path d="m174.464844 191.148438c0 9.421874-7.640625 17.066406-17.066406 17.066406-5.566407 0-10.464844-2.707032-13.582032-6.835938-.023437 0-.042968.007813-.070312.007813-9.425782 0-17.066406-7.640625-17.066406-17.066407 0 0 0-10.242187 6.828124-17.066406l13.652344-34.132812-3.773437-11.320313c-1.871094-5.613281-.410157-11.800781 3.773437-15.988281 0 0 6.828125-34.132812 54.613282-27.304688 47.785156 6.824219 34.132812 68.265626 6.828124 75.09375l-20.710937 8.171876zm0 0" fill="#c1dbdc"/><path d="m157.398438 215.039062c-6.410157 0-12.394532-2.53125-16.863282-7.039062-11.660156-1.574219-20.683594-11.59375-20.683594-23.679688 0-1.28125.230469-12.335937 7.796876-20.804687l12.246093-30.609375-2.984375-8.945312c-2.503906-7.511719-.910156-15.613282 4.140625-21.582032 2.628907-8.191406 15.273438-37.230468 61.6875-30.632812 22.328125 3.195312 36.3125 17.914062 37.429688 39.378906 1.152343 22.460938-12.023438 44.292969-29.449219 48.972656l-17.757812 7.015625-11.71875 25.632813c-.828126 12.433594-11.207032 22.292968-23.84375 22.292968zm-13.582032-20.484374c2.140625 0 4.15625 1.003906 5.445313 2.710937 1.980469 2.621094 4.945312 4.121094 8.136719 4.121094 5.648437 0 10.242187-4.59375 10.242187-10.238281 0-.980469.210937-1.949219.617187-2.839844l13.425782-29.375c.734375-1.601563 2.0625-2.859375 3.703125-3.507813l20.707031-8.171875c.277344-.113281.558594-.207031.851562-.273437 11.054688-2.765625 20.386719-19.519531 19.582032-35.148438-.441406-8.613281-4.371094-23.519531-25.71875-26.566406-40.992188-5.886719-46.726563 20.746094-46.953125 21.886719-.265625 1.320312-.914063 2.535156-1.867188 3.488281-2.371093 2.375-3.183593 5.820313-2.125 9l3.773438 11.320313c.511719 1.53125.460937 3.191406-.136719 4.691406l-13.652344 34.132812c-.34375.859375-.859375 1.640625-1.515625 2.292969-4.617187 4.621094-4.824219 12.167969-4.824219 12.242187 0 5.585938 4.492188 10.140626 10.054688 10.238282.085938-.003906.171875-.003906.253906-.003906zm0 0" fill="#4c241d"/><path d="m177.878906 133.121094c-3.769531 0-6.824218-3.054688-6.824218-6.828125 0-3.773438 3.054687-6.828125 6.824218-6.828125 1.886719 0 3.414063-1.53125 3.414063-3.410156 0-3.773438 3.058593-6.828126 6.828125-6.828126 3.773437 0 6.824218 3.054688 6.824218 6.828126 0 9.414062-7.652343 17.066406-17.066406 17.066406zm0 0" fill="#4c241d"/><path d="m213.472656 99.132812c5.953125 0 10.574219-5.1875 9.886719-11.097656l-1.105469-9.527344 20.480469-40.960937-6.828125-27.308594-6.828125 27.308594-20.46875 30.707031c-4.398437 6.597656-6.171875 14.597656-4.972656 22.433594.746093 4.855469 4.921875 8.445312 9.835937 8.445312zm0 0" fill="#fc8c29"/><g fill="#4c241d"><path d="m213.472656 105.960938c-8.355468 0-15.324218-5.996094-16.582031-14.25-1.457031-9.53125.679687-19.210938 6.035156-27.246094l19.820313-29.71875 6.539062-26.160156c.761719-3.039063 3.488282-5.171876 6.621094-5.171876s5.859375 2.132813 6.621094 5.171876l6.824218 27.308593c.402344 1.578125.214844 3.246094-.511718 4.707031l-19.574219 39.140626.875 7.503906c.550781 4.753906-.953125 9.519531-4.132813 13.09375-3.179687 3.574218-7.75 5.621094-12.535156 5.621094zm15.078125-55.3125-14.265625 21.390624c-3.457031 5.195313-4.84375 11.449219-3.898437 17.613282.234375 1.539062 1.53125 2.65625 3.085937 2.65625 1.222656 0 1.988282-.65625 2.335938-1.046875.351562-.394531.910156-1.226563.773437-2.441407l-1.109375-9.527343c-.152344-1.320313.082032-2.652344.675782-3.839844zm0 0"/><path d="m61.832031 197.972656c-2.503906 0-4.914062-1.378906-6.113281-3.773437l-6.824219-13.652344c-1.6875-3.375-.320312-7.472656 3.050781-9.160156 3.378907-1.671875 7.476563-.3125 9.160157 3.054687l6.828125 13.652344c1.6875 3.375.320312 7.472656-3.054688 9.160156-.980468.484375-2.019531.71875-3.046875.71875zm0 0"/><path d="m89.132812 191.148438c-3.769531 0-6.824218-3.054688-6.824218-6.828126v-20.480468c0-3.773438 3.054687-6.828125 6.824218-6.828125 3.769532 0 6.828126 3.054687 6.828126 6.828125v20.480468c0 3.773438-3.058594 6.828126-6.828126 6.828126zm0 0"/><path d="m32.640625 218.953125c-3.671875 0-6.703125-2.914063-6.820313-6.605469-.121093-3.765625 2.835938-6.921875 6.601563-7.039062l15.53125-.5c3.851563-.40625 6.921875 2.824218 7.042969 6.597656.121094 3.765625-2.835938 6.921875-6.601563 7.039062l-15.53125.5c-.078125.007813-.152343.007813-.222656.007813zm0 0"/><path d="m163.511719 191.148438c0 3.371093-2.738281 6.109374-6.113281 6.109374-3.371094 0-6.109376-2.738281-6.109376-6.109374 0-3.375 2.738282-6.113282 6.109376-6.113282 3.375 0 6.113281 2.738282 6.113281 6.113282zm0 0"/></g></svg>